<?xml version="1.0" standalone="no"?>
<!DOCTYPE svg PUBLIC "-//W3C//DTD SVG 20010904//EN"
 "http://www.w3.org/TR/2001/REC-SVG-20010904/DTD/svg10.dtd">
<svg version="1.0" xmlns="http://www.w3.org/2000/svg"
 width="184.000000pt" height="184.000000pt" viewBox="0 0 184.000000 184.000000"
 preserveAspectRatio="xMidYMid meet">
<metadata>
Created by potrace 1.16, written by Peter Selinger 2001-2019
</metadata>
<g transform="translate(0.000000,184.000000) scale(0.100000,-0.100000)"
fill="#000000" stroke="none">
<path d="M1335 1680 c-3 -5 -19 -10 -35 -10 -46 0 -63 -36 -63 -127 0 -63 3
-79 19 -90 24 -18 84 -10 101 14 17 22 17 118 1 130 -21 17 -60 23 -80 12 -21
-11 -22 -6 -8 22 7 12 21 19 38 19 27 0 52 15 52 32 0 11 -18 10 -25 -2z"/>
<path d="M429 1601 c-13 -11 -21 -23 -17 -27 5 -4 16 0 26 9 33 30 82 16 82
-24 0 -12 -12 -19 -45 -23 -50 -8 -71 -32 -61 -72 6 -22 11 -24 66 -24 l60 0
0 70 c0 57 -4 74 -20 90 -25 25 -61 26 -91 1z"/>
<path d="M965 1599 c-3 -14 -2 -53 2 -89 l8 -65 105 0 c102 0 105 -1 108 -23
2 -13 1 -30 -2 -39 -6 -14 -9 -13 -31 1 -29 19 -56 21 -73 4 -9 -9 -15 -9 -24
0 -15 15 -53 15 -78 0 -15 -10 -22 -9 -38 5 -23 21 -31 21 -54 0 -18 -16 -21
-16 -47 0 -24 14 -31 14 -54 2 -23 -12 -31 -12 -54 0 -23 12 -30 12 -54 -2
-24 -14 -32 -15 -53 -3 -20 10 -31 10 -54 1 -24 -10 -34 -10 -51 1 -16 10 -27
10 -53 0 -26 -10 -36 -9 -55 3 -13 9 -23 11 -23 5 0 -5 11 -17 24 -25 22 -15
27 -15 56 0 30 15 33 15 51 -1 18 -16 22 -17 47 -2 23 13 32 13 57 3 25 -11
34 -11 56 2 23 14 29 14 54 1 25 -14 31 -13 56 1 25 14 29 14 47 -2 23 -21 31
-21 54 0 16 14 22 15 36 5 33 -23 43 -24 63 -6 17 15 24 16 39 6 11 -7 27 -12
35 -12 8 0 24 5 35 12 15 10 22 9 38 -5 23 -21 40 -22 62 -2 16 14 20 14 47
-2 28 -16 32 -16 55 -1 22 15 26 15 51 0 25 -15 29 -15 55 0 26 16 31 16 52 1
21 -15 25 -15 51 1 17 10 30 13 34 6 8 -13 25 -13 25 0 0 19 -50 23 -69 6 -16
-15 -19 -15 -31 -1 -15 18 -43 19 -70 3 -16 -10 -24 -10 -40 0 -24 15 -45 15
-68 1 -24 -15 -82 13 -82 40 0 10 -7 24 -15 31 -11 9 -15 32 -15 81 0 39 -4
69 -10 69 -10 0 -14 -38 -11 -101 2 -35 1 -37 -34 -43 -21 -4 -39 -6 -41 -3
-2 2 -7 38 -10 80 -4 46 -11 74 -17 70 -6 -3 -7 -33 -3 -73 l6 -68 -28 -5
c-15 -3 -31 -2 -35 3 -5 4 -10 37 -11 74 -2 70 -11 93 -21 55z"/>
<path d="M1445 1600 c-23 -25 -12 -39 13 -16 22 19 48 13 62 -15 15 -27 13
-29 -28 -29 -25 0 -45 -7 -55 -18 -39 -43 -5 -83 67 -80 l48 1 -4 70 c-3 58
-8 73 -27 88 -30 24 -53 24 -76 -1z"/>
<path d="M630 1567 c0 -57 -17 -104 -39 -110 -10 -2 -20 -14 -24 -26 -6 -24
10 -29 19 -6 9 22 134 22 134 0 0 -8 5 -15 10 -15 13 0 13 37 0 45 -7 4 -10
36 -8 78 l3 72 -47 3 -48 3 0 -44z"/>
<path d="M760 1333 c-29 -10 -100 -92 -100 -115 0 -33 -10 -44 -57 -63 -32
-13 -49 -29 -78 -78 -21 -34 -46 -69 -55 -77 -9 -8 -27 -46 -39 -85 -18 -56
-22 -89 -20 -163 3 -110 -4 -122 -81 -130 -66 -6 -78 -24 -79 -119 0 -68 2
-74 30 -98 17 -14 35 -25 40 -25 6 0 22 -13 36 -30 16 -19 35 -30 51 -31 37 0
75 -51 82 -108 4 -40 9 -48 40 -63 38 -19 105 -24 115 -8 3 6 26 2 56 -10 104
-41 250 -16 265 46 6 24 10 26 43 20 58 -9 224 58 295 120 59 50 134 151 182
244 25 50 29 67 32 176 l4 122 -35 74 c-35 73 -55 98 -130 166 -20 19 -40 46
-44 60 -11 45 -34 72 -87 103 -43 24 -62 29 -123 29 -39 0 -84 -5 -98 -10 -21
-8 -30 -6 -43 6 -41 42 -148 66 -202 47z m162 -42 l37 -22 -35 -45 c-36 -49
-38 -58 -25 -117 8 -32 6 -39 -11 -48 -43 -23 -160 16 -191 65 -10 14 -17 45
-17 69 0 39 5 48 47 86 45 43 47 43 102 38 31 -2 72 -14 93 -26z m293 -47 c78
-52 93 -99 56 -172 -26 -50 -49 -69 -107 -87 -67 -20 -87 -19 -149 10 -45 22
-58 34 -79 77 -32 63 -33 97 -4 133 33 42 92 65 173 65 59 0 77 -4 110 -26z
m-533 -133 c35 -51 105 -76 190 -68 50 4 60 2 68 -14 14 -25 86 -66 131 -74
35 -7 113 11 158 35 12 6 35 35 52 65 l31 55 40 -33 c46 -36 108 -113 108
-133 0 -7 10 -30 23 -51 19 -34 22 -50 20 -141 -3 -121 -22 -178 -96 -288 -79
-118 -140 -170 -245 -209 -51 -19 -109 -35 -131 -35 -35 0 -39 3 -53 39 -16
41 -52 69 -63 51 -3 -6 1 -13 10 -16 9 -4 22 -18 29 -33 19 -38 3 -87 -37
-111 -41 -25 -143 -27 -209 -3 -47 17 -48 18 -48 59 0 24 -4 46 -10 49 -6 4
-10 -10 -10 -34 0 -66 -36 -86 -98 -55 -28 13 -32 21 -32 55 0 39 0 39 39 39
59 0 91 35 91 99 0 51 0 52 -58 87 -7 4 41 74 51 74 7 0 31 -9 54 -20 24 -10
45 -15 48 -10 3 5 -16 19 -42 30 -72 31 -75 33 -87 69 -15 46 -54 73 -115 79
l-51 5 0 89 c0 100 25 192 66 241 13 16 24 34 24 40 1 14 61 81 87 96 28 16
36 13 65 -28z m-132 -480 c31 -16 36 -25 43 -71 12 -69 -2 -84 -66 -75 -42 6
-46 10 -61 50 -9 23 -26 51 -36 60 -11 10 -20 24 -20 31 0 27 92 31 140 5z
m-101 -107 c19 -55 9 -86 -34 -107 -66 -31 -145 -13 -145 34 0 34 115 123 150
117 8 -2 21 -21 29 -44z"/>
<path d="M588 1075 c-8 -9 9 -91 27 -125 22 -43 105 -77 244 -101 l113 -20 94
22 c101 23 195 76 203 114 3 15 -4 13 -33 -13 -51 -45 -99 -67 -187 -86 -73
-16 -82 -16 -190 3 -114 19 -195 47 -219 76 -7 9 -20 43 -29 76 -9 33 -19 57
-23 54z"/>
</g>
</svg>
