<?xml version="1.0" standalone="no"?>
<!DOCTYPE svg PUBLIC "-//W3C//DTD SVG 20010904//EN"
 "http://www.w3.org/TR/2001/REC-SVG-20010904/DTD/svg10.dtd">
<svg version="1.0" xmlns="http://www.w3.org/2000/svg"
 width="400.000000pt" height="400.000000pt" viewBox="0 0 400.000000 400.000000"
 preserveAspectRatio="xMidYMid meet">
<metadata>
Created by potrace 1.16, written by Peter Selinger 2001-2019
</metadata>
<g transform="translate(0.000000,400.000000) scale(0.100000,-0.100000)"
fill="#000000" stroke="none">
<path d="M2499 2578 c0 -2 -2 -23 -4 -46 -4 -53 -7 -57 -33 -43 -25 13 -119
15 -126 2 -3 -5 11 -19 32 -32 l37 -23 -53 -7 c-69 -9 -117 -46 -159 -125 -31
-57 -42 -104 -24 -104 5 0 14 7 21 15 8 9 21 13 32 9 23 -7 68 20 68 41 0 8 4
15 9 15 16 0 19 -24 5 -50 -17 -34 -28 -96 -20 -116 5 -14 9 -13 33 4 51 35
51 35 46 -8 -6 -45 3 -50 50 -26 33 18 33 16 5 -81 -17 -59 -22 -107 -23 -198
-2 -162 -2 -160 -30 -175 -14 -7 -25 -17 -25 -21 0 -9 10 -8 125 13 39 6 76
11 83 10 15 -3 16 15 2 20 -14 4 -39 75 -40 110 0 15 -8 43 -17 63 -15 31 -15
47 -6 120 10 81 21 114 30 89 2 -6 10 -19 17 -29 13 -18 14 -17 29 11 l15 29
10 -25 c6 -14 13 -33 16 -43 8 -25 23 -13 31 26 4 17 9 35 12 39 2 4 26 -20
52 -55 26 -34 55 -63 63 -65 22 -4 32 46 23 124 -4 37 -3 64 2 64 5 0 31 -20
58 -45 27 -24 52 -42 57 -39 14 9 9 104 -8 158 -30 90 -33 96 -49 90 -8 -3
-15 -2 -15 4 0 14 39 8 78 -12 19 -10 36 -15 40 -12 3 3 -1 25 -7 48 -17 55
-75 112 -130 129 -44 13 -60 10 -142 -25 -13 -6 -18 0 -23 27 -8 44 -57 112
-95 132 -27 13 -50 19 -52 13z m325 -163 c42 -20 92 -73 100 -105 5 -21 3 -20
-9 5 -8 17 -14 26 -15 21 0 -4 -8 0 -17 11 -10 10 -15 14 -10 9 19 -26 4 -26
-23 -1 -16 16 -41 29 -54 30 -22 0 -24 -3 -20 -30 2 -16 2 -24 -2 -17 -3 6
-11 9 -17 5 -7 -4 -8 0 -4 11 4 9 3 14 -2 11 -5 -3 -12 -1 -16 5 -3 5 -11 10
-16 10 -6 0 -7 -4 -4 -10 3 -5 1 -10 -5 -10 -6 0 -8 -10 -5 -23 6 -21 3 -23
-44 -23 -28 0 -51 1 -51 2 0 19 31 59 57 75 64 40 109 46 157 24z m-131 -157
c46 -47 63 -90 73 -185 6 -50 4 -61 -10 -66 -23 -9 -32 19 -18 56 l11 30 -24
-23 c-28 -27 -30 -23 -12 23 11 28 13 42 8 62 0 3 -12 -2 -26 -11 -22 -14 -25
-14 -25 -1 0 8 7 20 15 27 13 11 13 15 3 21 -10 7 -10 9 0 9 6 0 12 4 12 9 0
5 -13 8 -30 7 -29 -2 -29 -1 -15 20 14 21 13 22 -15 17 -24 -3 -29 -1 -24 11
3 9 1 16 -5 16 -6 0 -11 -4 -11 -10 0 -5 -7 -10 -15 -10 -25 0 -17 18 13 28
44 16 50 14 95 -30z"/>
<path d="M686 2344 c-3 -9 -6 -166 -6 -350 1 -361 -2 -383 -54 -417 -14 -10
-46 -20 -71 -24 l-46 -6 3 -41 3 -41 56 0 c114 0 197 74 219 196 6 32 9 187 8
375 l-3 319 -51 3 c-41 2 -53 -1 -58 -14z"/>
<path d="M1054 2140 c-48 -11 -101 -47 -123 -84 -27 -43 -27 -43 10 -62 31
-16 32 -16 70 22 70 68 145 45 151 -45 l3 -45 -76 -12 c-118 -18 -168 -53
-188 -131 -22 -81 17 -160 87 -181 56 -17 100 -15 149 7 41 19 42 19 79 0 21
-10 48 -19 60 -19 52 0 73 69 24 80 l-25 6 -5 174 c-6 179 -12 208 -50 248
-35 37 -109 56 -166 42z m114 -366 c-3 -48 -7 -60 -30 -77 -30 -23 -99 -27
-123 -7 -21 18 -20 93 3 112 25 22 40 26 100 27 l53 1 -3 -56z"/>
<path d="M2005 2141 c-45 -11 -69 -26 -104 -67 -37 -41 -37 -62 1 -83 25 -14
27 -14 52 16 33 40 83 57 120 43 29 -11 46 -45 46 -94 l0 -33 -69 -7 c-79 -8
-145 -38 -175 -79 -16 -22 -21 -44 -21 -97 0 -62 3 -72 29 -99 16 -17 45 -36
64 -42 43 -14 123 -6 162 17 27 16 31 16 47 2 26 -22 59 -31 93 -23 26 6 30
11 30 41 0 26 -4 34 -18 34 -38 0 -42 19 -42 185 0 147 -2 165 -22 205 -13 25
-36 52 -53 61 -37 20 -100 29 -140 20z m115 -371 c0 -57 -1 -60 -32 -76 -18
-9 -50 -17 -72 -17 -46 0 -66 21 -66 68 0 57 38 84 118 85 l52 0 0 -60z"/>
<path d="M1336 2131 c-3 -5 37 -125 88 -267 l95 -259 53 -3 53 -3 96 263 c67
182 93 265 85 270 -6 4 -27 8 -46 8 -19 0 -40 -4 -46 -8 -6 -4 -40 -94 -75
-199 -34 -106 -65 -191 -67 -188 -3 2 -31 84 -63 182 -32 98 -61 186 -64 196
-5 13 -18 17 -55 17 -27 0 -51 -4 -54 -9z"/>
<path d="M2852 1970 c-66 -30 -85 -82 -80 -216 3 -84 7 -108 24 -131 60 -83
204 -83 254 -1 26 43 25 46 -7 59 -24 9 -29 7 -51 -21 -32 -41 -90 -43 -121
-4 -18 23 -21 41 -21 121 0 86 2 96 25 118 35 35 79 33 115 -5 25 -27 31 -29
54 -19 32 15 32 20 -1 60 -50 59 -116 73 -191 39z"/>
<path d="M3200 1979 c-28 -12 -67 -46 -81 -71 -7 -13 -4 -21 16 -34 24 -16 26
-15 54 15 54 57 121 32 121 -46 0 -33 -1 -33 -47 -33 -71 -1 -130 -31 -149
-77 -21 -49 -13 -109 19 -141 32 -32 99 -40 151 -18 36 15 41 15 63 1 37 -24
77 -16 81 16 2 20 -2 28 -17 32 -20 5 -21 12 -21 134 0 102 -4 135 -18 163
-28 58 -107 85 -172 59z"/>
</g>
</svg>
